# xmcd
#
# Track frame offsets:
#	150
#	13637
#	27489
#	42318
#	56722
#	70914
#	106013
#	121118
#	134771
#	148746
#	161207
#	175302
#	190367
#	205756
#	220301
#	234410
#	246295
#	260705
#
# Disc length: 3641 seconds
#
# Revision: 2
# Processed by: cddbd v1.5.2PL0 Copyright (c) Steve Scherf et al.
# Submitted via: audiograbber 1.83.01
#
DISCID=150e3712
DTITLE=Benny Goodman and His Orchestra - The Big Band Era [CD1)
DYEAR=1900
DGENRE=Jazz
TTITLE0=Fascinating Rhythm
TTITLE1=Lucky (You're Right, I'm Wrong)
TTITLE2=Rattle And Roll
TTITLE3=Swing Angel
TTITLE4=All The Cats Join In
TTITLE5=Oh, Baby!
TTITLE6=Fly - By - Night
TTITLE7=Put That Kiss Back Where You Found It
TTITLE8=Lonely Moments
TTITLE9=Whistle Blues
TTITLE10=Undercurrent Blues
TTITLE11=Shishkabop
TTITLE12=The Huckle-Buck
TTITLE13=Bop Hop
TTITLE14=Trees
TTITLE15=Dreazag
TTITLE16=Fiesta Time
TTITLE17=Egg Head
EXTD=
EXTT0=
EXTT1=
EXTT2=
EXTT3=
EXTT4=
EXTT5=
EXTT6=
EXTT7=
EXTT8=
EXTT9=
EXTT10=
EXTT11=
EXTT12=
EXTT13=
EXTT14=
EXTT15=
EXTT16=
EXTT17=
PLAYORDER=
